<?xml version="1.0" encoding="utf-8"?>
<!-- Generator: Adobe Illustrator 21.0.0, SVG Export Plug-In . SVG Version: 6.00 Build 0)  -->
<svg version="1.1" id="图层_1" xmlns="http://www.w3.org/2000/svg" xmlns:xlink="http://www.w3.org/1999/xlink" x="0px" y="0px"
	 width="20px" height="20px" viewBox="0 0 20 20" style="enable-background:new 0 0 20 20;" xml:space="preserve">
<path style="fill:#F9F9F9;stroke:#333333;stroke-linecap:round;stroke-miterlimit:10;" d="M15,17.5H4.3c-1,0-1.8-0.7-2-1.6L1,8.9
	C0.9,7.8,1.6,6.7,2.7,6.5c0.1,0,0.3,0,0.4,0h13.2c1.1,0,2,0.9,2,2c0,0.1,0,0.3,0,0.4l-1.3,7C16.8,16.8,16,17.5,15,17.5z"/>
<path style="fill:#F9F9F9;stroke:#333333;stroke-linecap:round;stroke-miterlimit:10;" d="M3.5,6V4.5c0-1.1,0.9-2,2-2h1.3
	c0.4,0,0.8,0.2,1.1,0.5l0.5,0.5h6.1c1.5,0,2,1.4,2,2.5"/>
<line style="opacity:0.5;fill:none;stroke:#333333;stroke-linecap:round;stroke-miterlimit:10;enable-background:new    ;" x1="14.5" y1="10.7" x2="13.5" y2="14.7"/>
</svg>
