<?xml version="1.0" encoding="utf-8"?>
<!-- Generator: Adobe Illustrator 21.0.0, SVG Export Plug-In . SVG Version: 6.00 Build 0)  -->
<svg version="1.1" id="Layer_1" xmlns="http://www.w3.org/2000/svg" xmlns:xlink="http://www.w3.org/1999/xlink" x="0px" y="0px"
	 width="20px" height="20px" viewBox="0 0 20 20" style="enable-background:new 0 0 20 20;" xml:space="preserve">
<title>icons2</title>
<path style="fill:none;stroke:#333333;stroke-miterlimit:10;" d="M5.5,6.5h10l0,0v9c0,1.1-0.9,2-2,2h-6c-1.1,0-2-0.9-2-2V6.5
	L5.5,6.5z"/>
<path style="fill:none;stroke:#333333;stroke-miterlimit:10;" d="M9.5,3.5h2c0.6,0,1,0.4,1,1v2l0,0h-4l0,0v-2
	C8.5,3.9,8.9,3.5,9.5,3.5z"/>
<line style="opacity:0.5;fill:none;stroke:#333333;stroke-linecap:round;stroke-miterlimit:10;enable-background:new    ;" x1="10.5" y1="9" x2="10.5" y2="15"/>
<line style="opacity:0.5;fill:none;stroke:#333333;stroke-linecap:round;stroke-miterlimit:10;enable-background:new    ;" x1="12.5" y1="10" x2="12.5" y2="14"/>
<line style="opacity:0.5;fill:none;stroke:#333333;stroke-linecap:round;stroke-miterlimit:10;enable-background:new    ;" x1="8.5" y1="10" x2="8.5" y2="14"/>
<line style="fill:none;stroke:#333333;stroke-linecap:round;stroke-miterlimit:10;" x1="3" y1="6.5" x2="18" y2="6.5"/>
</svg>
