<?xml version="1.0" encoding="utf-8"?>
<!-- Generator: Adobe Illustrator 21.0.0, SVG Export Plug-In . SVG Version: 6.00 Build 0)  -->
<svg version="1.1" id="图层_1" xmlns="http://www.w3.org/2000/svg" xmlns:xlink="http://www.w3.org/1999/xlink" x="0px" y="0px"
	 width="80px" height="80px" viewBox="0 0 80 80" style="enable-background:new 0 0 80 80;" xml:space="preserve">
	<linearGradient id="l1" gradientUnits="userSpaceOnUse" x1="18.7768" y1="58" x2="55.8583" y2="58" gradientTransform="matrix(1 0 0 -1 0 80)">
		<stop offset="0" style="stop-color:#333333"/>
		<stop offset="0.7" style="stop-color:#333333;stop-opacity:0"/>
	</linearGradient>
	<circle style="fill:url(#l1);" cx="40" cy="22" r="18"/>
	<linearGradient id="l2" gradientUnits="userSpaceOnUse" x1="57.7347" y1="22" x2="21.9855" y2="22" gradientTransform="matrix(1 0 0 -1 0 80)">
		<stop offset="0" style="stop-color:#333333"/>
		<stop offset="0.7" style="stop-color:#333333;stop-opacity:0"/>
	</linearGradient>
	<circle style="fill:url(#l2);" cx="40" cy="58" r="18"/>
	<linearGradient id="l3" gradientUnits="userSpaceOnUse" x1="25.8109" y1="44.3173" x2="45.2349" y2="73.8" gradientTransform="matrix(1 0 0 -1 0 80)">
		<stop offset="0" style="stop-color:#333333"/>
		<stop offset="0.7" style="stop-color:#333333;stop-opacity:0"/>
	</linearGradient>
	<path style="opacity:0.8;fill:none;stroke:url(#l3);stroke-width:2.4978;stroke-miterlimit:10;" d="M40,40c-9.9,0-18-8.1-18-18S30.1,4,40,4"/>
	<linearGradient id="l4" gradientUnits="userSpaceOnUse" x1="53.7479" y1="36.2983" x2="35.9127" y2="5.0867" gradientTransform="matrix(1 0 0 -1 0 80)">
		<stop offset="0" style="stop-color:#333333"/>
		<stop offset="0.7" style="stop-color:#333333;stop-opacity:0"/>
	</linearGradient>
	<path style="opacity:0.8;fill:none;stroke:url(#l4);stroke-width:2.4978;stroke-miterlimit:10;" d="M40,40c9.9,0,18,8.1,18,18s-8.1,18-18,18"/>
	<linearGradient id="l5" gradientUnits="userSpaceOnUse" x1="18.7768" y1="58" x2="55.8583" y2="58" gradientTransform="matrix(0 1 1 -0 0 0)">
		<stop offset="0" style="stop-color:#333333"/>
		<stop offset="0.7" style="stop-color:#333333;stop-opacity:0"/>
	</linearGradient>
	<circle style="fill:url(#l5);" cx="58" cy="40" r="18"/>
	<linearGradient id="l6" gradientUnits="userSpaceOnUse" x1="57.7347" y1="22" x2="21.9855" y2="22" gradientTransform="matrix(0 1 1 -0 0 0)">
		<stop offset="0" style="stop-color:#333333"/>
		<stop offset="0.7" style="stop-color:#333333;stop-opacity:0"/>
	</linearGradient>
	<circle style="fill:url(#l6);" cx="22" cy="40" r="18"/>
	<linearGradient id="l7" gradientUnits="userSpaceOnUse" x1="25.8109" y1="44.3173" x2="45.2349" y2="73.8" gradientTransform="matrix(0 1 1 -0 0 0)">
		<stop offset="0" style="stop-color:#333333"/>
		<stop offset="0.7" style="stop-color:#333333;stop-opacity:0"/>
	</linearGradient>
	<path style="opacity:0.8;fill:none;stroke:url(#l7);stroke-width:2.4978;stroke-miterlimit:10;" d="M40,40c0-9.9,8.1-18,18-18s18,8.1,18,18"/>
	<linearGradient id="l8" gradientUnits="userSpaceOnUse" x1="53.7479" y1="36.2983" x2="35.9127" y2="5.0867" gradientTransform="matrix(0 1 1 -0 0 0)">
		<stop offset="0" style="stop-color:#333333"/>
		<stop offset="0.7" style="stop-color:#333333;stop-opacity:0"/>
	</linearGradient>
	<path style="opacity:0.8;fill:none;stroke:url(#l8);stroke-width:2.4978;stroke-miterlimit:10;" d="M40,40c0,9.9-8.1,18-18,18S4,49.9,4,40"/>
</svg>
